<?xml version="1.0" encoding="UTF-8" standalone="no" ?>
<!DOCTYPE svg PUBLIC "-//W3C//DTD SVG 1.1//EN" "http://www.w3.org/Graphics/SVG/1.1/DTD/svg11.dtd">
<svg xmlns="http://www.w3.org/2000/svg" xmlns:xlink="http://www.w3.org/1999/xlink" version="1.1" width="693.5999999999999" height="693.5999999999999" viewBox="0 0 693.6 693.6" xml:space="preserve">
<desc>Created with Fabric.js 2.4.6</desc>
<defs>
</defs>
<rect x="0" y="0" width="100%" height="100%" fill="#ffffff"></rect>
<g transform="matrix(1 0 0 1 346.5 346.5)" style=""  >
	<g transform="matrix(2.31 0 0 2.31 0 0)" id="Background"  >
<rect style="stroke: none; stroke-width: 1; stroke-dasharray: none; stroke-linecap: butt; stroke-dashoffset: 0; stroke-linejoin: miter; stroke-miterlimit: 4; fill: none; fill-rule: nonzero; opacity: 1;"  x="-150" y="-150" rx="0" ry="0" width="300" height="300" />
</g>
	<g transform="matrix(1.85 0 0 1.85 -1.9 0.3)" style=""  >
	<g transform="matrix(2.31 0 0 2.31 -0.07 -0.12)" id="innerlogo"  >
<path style="stroke: none; stroke-width: 1; stroke-dasharray: none; stroke-linecap: butt; stroke-dashoffset: 0; stroke-linejoin: miter; stroke-miterlimit: 4; fill: rgb(35,47,59); fill-rule: evenodd; opacity: 1;"  transform=" translate(-149.9, -123.15)" d="M 181.1 125.9 c -2.3 -6.8 -2.8 -5.5 -3.1 -14.7 c -0.1 -2.7 0.3 -5.7 0.6 -8.6 c 1.6 1.1 2.6 2.2 2.6 2.2 c 0 -3.7 -1 -5.8 -1.8 -6.9 c 3.1 -4.6 3.5 -12 -0.7 -19.4 c 0.5 6.8 -0.8 10.5 -2 14.8 c 0 0 -0.1 -9.1 -5.9 -14.2 c 0.2 0.3 5 6.5 2.4 15 c -1.1 -13.1 -9.7 -23.7 -21.5 -22.9 c 2.6 0.5 5.3 1.4 7.3 3.1 c 5.8 4.7 8.7 10.3 9.6 16.6 c -0.2 -0.6 -3.8 -10 -11.1 -13.7 c 0.3 0.2 4.7 3.8 6.3 11.9 c -5.4 -13.3 -15.6 -17.8 -28.1 -15.7 c 9 1.4 17 7.1 17.5 7.4 c -11.7 -7.1 -24.2 -0.6 -33 -9.2 c 5.3 2.5 10.5 1.9 12.1 1 c -4.5 0 -14 -2.7 -15.2 -8.6 c -1.9 5.9 0.3 12.4 3.3 15.6 c 5.8 6.4 15.5 5.4 15.5 5.4 s -9.1 -0.8 -12.6 -7.7 c 10.3 9 17.3 2.2 30.9 7.1 c -0.5 -0.1 -7.9 -1.3 -13.6 1.2 c 7.6 -0.7 19.6 1 23 9.8 c -9.7 -15.5 -40 3.5 -47.1 -19.2 c 0.2 21.3 15.9 20.1 28.7 17.1 c -9.5 4.8 -24 4.1 -28.7 -3.1 c 1.8 5 6.1 8.6 11.2 9.7 h -3 c 0.4 3.8 1.1 7.8 0.9 11.3 c -0.3 9.2 -0.8 7.8 -3.1 14.7 c -3.6 10.6 -2.8 20.8 0.9 25.7 c 0 0 -0.1 -5.4 1.5 -9.2 c -0.2 4.8 -1 16.3 10.7 21.6 c -0.1 -0.2 -2.5 -4.1 -1.8 -8.3 c 0 0 1.8 10.1 15.4 14 c 0.7 -0.4 1.6 -0.6 2.5 -0.6 s 1.7 0.2 2.5 0.6 c 13.6 -3.9 15.4 -14 15.4 -14 c 0.7 4.3 -1.7 8.1 -1.8 8.3 c 11.7 -5.4 10.9 -16.8 10.7 -21.6 c 1.6 3.9 1.5 9.2 1.5 9.2 C 183.9 146.6 184.7 136.4 181.1 125.9 z M 130.5 100.5 c 0 -0.1 0 -0.2 0 -0.3 c 6.3 0.1 18.6 -5 25.4 -2 c 6.8 3 10.6 3.4 10.6 3.4 l 0 0 c 2.4 0.9 4.7 1 6.7 0.6 c 0.1 1 0.1 2 0 2.9 c -9.6 -2 -15.8 0.1 -17.4 0.7 c -1.8 0.7 -3.2 0.4 -4.2 0.4 s -2.4 0.3 -4.2 -0.4 c -1.6 -0.6 -7.7 -2.7 -17.2 -0.8 C 130.3 103.6 130.4 102.1 130.5 100.5 z M 172.8 110.5 c 0 0.4 -0.1 0.9 -0.2 1.4 c -0.7 3.3 -2.5 3.6 -3.4 2.8 c -0.9 -0.8 -1.5 -3.3 -3.7 -4.3 c -2.1 -1 -3.2 -3 -1.4 -3.5 c 0 0 4 -0.5 6.2 0.1 c 1.6 0.4 2.4 1 2.5 2.4 l 0 0 C 172.9 109.8 172.9 110.1 172.8 110.5 z M 145.8 112.3 c -0.8 3.3 -2.5 3.6 -3.4 2.8 c -0.9 -0.8 -1.5 -3.4 -3.7 -4.3 c -2.1 -0.9 -3.2 -3 -1.4 -3.4 c 0 0 4 -0.5 6.2 0.1 C 145.8 108 146.6 109 145.8 112.3 z M 160 140.9 c -3.4 0.3 -4.7 -1.4 -4.7 -1.4 c 0.4 1.6 1 2.4 1.1 2.5 c -3.6 -1.7 -2.9 -4.9 -2.9 -4.9 c 1.5 -0.1 3.1 0.1 3.1 0.1 c -2.3 -1.4 -4.8 -1.1 -4.8 -1.1 s -2.5 -0.3 -4.8 1.1 c 0 0 1.5 -0.2 3.1 -0.1 c 0 0 0.7 3.2 -2.9 4.9 c 0.1 -0.1 0.8 -0.9 1.1 -2.5 c 0 0 -1.3 1.7 -4.7 1.4 s -1.5 -5.4 -0.2 -6.8 c 1.4 -1.4 8.3 -1.6 8.3 -1.6 s 7 0.2 8.3 1.6 C 161.6 135.6 163.4 140.6 160 140.9 z M 174.8 129.3 c -1.1 3.2 -3.2 3 -7.9 0.5 c -2.6 -1.4 -5 -3 -6.8 -3.6 c -0.3 -0.1 -0.5 -0.1 -0.8 -0.2 c 0.3 -0.4 0.6 -0.9 0.6 -1.4 c 0.1 -1.8 -0.9 -2.9 -1 -3.1 c 0.6 1.5 0 2.9 -0.8 3.3 c -0.7 0.4 -2.1 0.1 -2.1 0.1 c 1.1 -0.4 1.7 -1.5 1.7 -1.5 c -1.1 -0.4 -2.3 0.5 -3.4 1.5 c -1.1 1 -2.5 1.2 -2.5 1.2 s -1.4 -0.2 -2.5 -1.2 s -2.3 -1.9 -3.4 -1.5 c 0 0 0.6 1.1 1.7 1.5 c 0 0 -1.4 0.4 -2.1 -0.1 c -0.7 -0.4 -1.3 -1.8 -0.8 -3.3 c -0.1 0.1 -1.2 1.3 -1 3.1 c 0 0.5 0.3 1 0.6 1.4 c -0.3 0 -0.5 0.1 -0.8 0.2 c -1.8 0.6 -4.3 2.2 -6.8 3.6 c -4.6 2.5 -6.8 2.7 -7.9 -0.5 c 2.1 0.8 4.9 -0.3 4.9 -0.3 c -4.9 -0.5 -5.5 -5.9 -5.6 -10.1 c 0.1 -2.2 0.4 -4.3 0.6 -5.6 c 0.5 2.4 1.5 5.5 3.2 6.7 c 2.5 1.7 6.9 2.2 10.6 0.7 c 3.7 -1.4 5.4 -4.8 6.4 -6.5 c 0.9 -1.7 1.1 -3 0.7 -3.6 c -0.4 -0.7 0.3 -1.4 2.1 -1.4 s 2.5 0.7 2.1 1.4 c -0.4 0.7 -0.2 2 0.7 3.6 c 0.9 1.7 2.7 5.1 6.4 6.5 s 8.1 1 10.6 -0.7 c 1.9 -1.3 2.9 -5 3.3 -7.5 c 0 0.1 0 0.3 0 0.4 c 0.2 1.3 0.4 3.5 0.6 6 c -0.1 4.2 -0.7 9.7 -5.6 10.1 C 169.9 129 172.6 130.1 174.8 129.3 z M 164.7 182.2 c -3.2 -0.5 -5.5 -3.4 -8.1 -4.6 c -1 1.6 -2.7 2.6 -4.8 2.6 c -2 0 -3.8 -1.1 -4.7 -2.6 c -2.6 1.2 -4.9 4.1 -8.1 4.6 c -3.8 0.6 -3.7 -1.8 -2.1 -4 c 1.5 -2.2 0.8 -4.5 0 -8 c -0.9 -3.4 1.5 -5 4.9 -2 c 2.1 1.8 4.3 2.6 5.8 2.9 c 0.5 -0.6 1.2 -1.2 1.9 -1.5 c 0.7 -0.4 1.6 -0.6 2.5 -0.6 s 1.7 0.2 2.5 0.6 c 0.7 0.4 1.4 0.9 1.9 1.5 c 1.5 -0.3 3.7 -1.1 5.8 -2.9 c 3.4 -3 5.7 -1.5 4.9 2 c -0.9 3.4 -1.6 5.8 0 8 C 168.4 180.4 168.4 182.8 164.7 182.2 z M 134.6 170.8 c -5.9 -3.2 -9.5 -8 -12.3 -14 c 1.5 11.4 11.5 18.4 11.5 18.4 L 134.6 170.8 L 134.6 170.8 z M 169.1 170.8 l 0.7 4.4 c 0 0 10 -7 11.5 -18.4 C 178.6 162.8 175 167.6 169.1 170.8 L 169.1 170.8 z" stroke-linecap="round" />
</g>
</g>
	<g transform="matrix(2.31 0 0 2.31 0.3 197.89)" style=""  >
		<text xml:space="preserve" font-family="'Poppins-Regular'" font-size="8" font-style="normal" font-weight="normal" style="stroke: none; stroke-width: 1; stroke-dasharray: none; stroke-linecap: butt; stroke-dashoffset: 0; stroke-linejoin: miter; stroke-miterlimit: 4; fill: rgb(35,47,59); fill-rule: nonzero; opacity: 1; white-space: pre;" ></text>
</g>
</g>
</svg>